<svg class="svg-icon" style="width: 1em; height: 1em;vertical-align: middle;fill: currentColor;overflow: hidden;" viewBox="0 0 1024 1024" version="1.1" xmlns="http://www.w3.org/2000/svg"><path d="M859.922948 740.352064c64.809177-81.864223 95.50826-180.783493 95.508261-283.113772C955.431209 201.412595 750.770651-6.658972 498.355963 0.163046 262.996321 6.985065 71.9798 211.645623 68.568791 453.827283c0 105.741288 34.110093 208.071567 98.91927 289.93579 17.055046 20.466056 37.521102 61.398167 37.521102 92.097251v47.754131c0 40.932112-3.411009 85.275232 44.343121 105.741288h10.233028c13.644037 0 23.877065-10.233028 37.521102-20.466056 6.822019-3.411009 17.055046-13.644037 23.877065-13.644037 3.411009 3.411009 13.644037 17.055046 20.466056 23.877065 13.644037 20.466056 30.699084 40.932112 51.16514 44.343121 17.055046 3.411009 30.699084-10.233028 44.34312-20.466056 6.822019-6.822019 20.466056-13.644037 23.877066-13.644037 3.411009 0 6.822019 6.822019 10.233027 10.233028 10.233028 10.233028 20.466056 23.877065 40.932112 23.877065 17.055046 0 34.110093-10.233028 47.75413-20.466056 6.822019-3.411009 17.055046-13.644037 23.877065-13.644037 6.822019 0 17.055046 10.233028 23.877065 13.644037 13.644037 10.233028 27.288074 20.466056 40.932112 20.466056h3.411009c20.466056-3.411009 34.110093-27.288074 44.343121-47.75413l10.233028-20.466056c6.822019 0 17.055046 10.233028 23.877065 17.055046 10.233028 10.233028 23.877065 20.466056 37.521102 20.466056 3.411009 0 6.822019 0 10.233028-3.411009 51.165139-20.466056 47.75413-85.275232 44.343121-119.385326v-34.110093c-3.411009-27.288074 10.233028-61.398167 37.521102-95.50826zM307.339442 580.034627c-57.987158 0-102.330279-44.343121-102.330279-102.330279s44.343121-102.330279 102.330279-102.330279 102.330279 44.343121 102.330279 102.330279-44.343121 102.330279-102.330279 102.330279z m249.003679 238.770651c-17.055046 0-30.699084-6.822019-44.343121-17.055046-10.233028 10.233028-27.288074 17.055046-44.343121 17.055046-13.644037 0-61.398167 0-61.398167-61.398167 0-44.343121 75.042205-122.796335 88.686242-139.851382h3.411009s3.411009 0 3.411009-3.411009h13.644037s3.411009 0 3.41101 3.411009h3.411009c13.644037 17.055046 88.686242 95.50826 88.686242 139.851382 3.411009 61.398167-40.932112 61.398167-54.576149 61.398167z m160.317437-238.770651c-57.987158 0-102.330279-44.343121-102.330279-102.330279s44.343121-102.330279 102.330279-102.330279 102.330279 44.343121 102.330279 102.330279-44.343121 102.330279-102.330279 102.330279z" fill="" /></svg>