<svg class="svg-icon" style="width: 1em; height: 1em;vertical-align: middle;fill: currentColor;overflow: hidden;" viewBox="0 0 1024 1024" version="1.1" xmlns="http://www.w3.org/2000/svg"><path d="M512 39.384615C250.092308 39.384615 39.384615 250.092308 39.384615 512s210.707692 472.615385 472.615385 472.615385 472.615385-210.707692 472.615385-472.615385S773.907692 39.384615 512 39.384615z m0 98.461539z m39.384615 1.969231h-3.938461 3.938461zM512 886.153846C305.230769 886.153846 137.846154 718.769231 137.846154 512c0-19.692308 1.969231-41.353846 5.907692-59.076923 25.6 3.938462 57.107692 13.784615 72.861539 29.538461 33.476923 35.446154 70.892308 76.8 106.338461 84.676924 0 0-3.938462 1.969231-7.876923 7.876923-3.938462 5.907692-7.876923 17.723077-7.876923 37.415384 0 92.553846 86.646154 37.415385 86.646154 129.969231 0 92.553846 104.369231 129.969231 104.369231 55.138462s68.923077-110.276923 68.923077-167.384616-53.169231-55.138462-86.646154-74.830769c-35.446154-17.723077-53.169231-47.261538-120.123077-37.415385-35.446154-33.476923-55.138462-61.046154-39.384616-92.553846 17.723077-33.476923 90.584615-39.384615 90.584616-90.584615s-49.230769-61.046154-84.676923-61.046154c-15.753846 0-49.230769-11.815385-76.8-25.6 33.476923-33.476923 74.830769-61.046154 118.153846-80.738462 31.507692 13.784615 84.676923 35.446154 129.969231 35.446154 53.169231 0 80.738462-37.415385 72.861538-61.046154 88.615385 13.784615 167.384615 59.076923 224.492308 122.092308-29.538462 17.723077-68.923077 37.415385-137.846154 37.415385-90.584615 0-90.584615 92.553846-37.415385 110.276923 55.138462 17.723077 110.276923-35.446154 128 0 17.723077 35.446154-128 35.446154-90.584615 126.030769 37.415385 90.584615 72.861538-1.969231 110.276923 88.615385 37.415385 90.584615 110.276923-13.784615 55.138462-84.676923-23.630769-31.507692-17.723077-128 37.415384-128h17.723077c7.876923 31.507692 13.784615 64.984615 13.784615 98.461538C886.153846 718.769231 718.769231 886.153846 512 886.153846z"  /></svg>